<svg width="24" xmlns="http://www.w3.org/2000/svg" height="24" viewBox="0 0 24 24" style="-webkit-print-color-adjust::exact" fill="none"><g style="fill:#000"><defs><linearGradient x1="3250.746" y1="610.76" x2="3205.794" y2="379.499" gradientUnits="userSpaceOnUse" id="a" gradientTransform="matrix(.04828 0 0 .04886 -141.6 -18.482)"><stop offset="0" stop-color="#6e6e6e"/><stop offset="1" stop-color="#fff"/></linearGradient></defs><path d="M11.982 3.5c-.112.003-.19.095-.261.171l-5.28 5.474L.353 6.48c-.157-.06-.35.071-.352.242-.003.107.054.202.08.303q1.912 5.65 3.822 11.302c.045.122.182.187.306.17H19.86c.13-.003.236-.115.26-.24l3.87-11.45c.05-.165-.095-.352-.265-.34-.105.005-.194.07-.291.105l-5.878 2.573-5.376-5.574a.27.27 0 0 0-.198-.07m3.828 7.674a2.3 2.3 0 0 0 1.716.701 2.5 2.5 0 0 0 1.014-.254l1.18-.517-1.598 4.731H5.876l-1.599-4.73c.471.205.941.415 1.414.616a2.34 2.34 0 0 0 1.915-.11c.252-.133.474-.317.667-.527L12 7.223z" style="stop-opacity:1;vector-effect:none;stroke:none;baseline-shift:baseline;overflow:visible;fill:url(#a);display:inline;stop-color:#000"/><defs><linearGradient x1="2955.062" y1="751.807" x2="3339.766" y2="461.912" gradientUnits="userSpaceOnUse" id="b" gradientTransform="matrix(.04828 0 0 .04886 -141.6 -18.482)"><stop offset="0" stop-color="#cecece"/><stop offset=".603" stop-color="#c6c6c6"/><stop offset="1" stop-color="#fff"/></linearGradient></defs><path d="M11.999 3.759a.01.01 0 0 0-.009.004l-5.488 5.69-6.23-2.727Q.263 6.722.26 6.73q-.007.004-.003.013L4.139 18.23a.01.01 0 0 0 .012.008h15.696q.008 0 .012-.008l3.883-11.488q.003-.01-.003-.013-.005-.007-.014-.003l-6.229 2.727-5.488-5.69a.01.01 0 0 0-.009-.004m0 3.093 3.994 4.141c.614.637 1.53.79 2.323.444h0l1.834-.803-1.845 5.46H5.693l-1.845-5.46 1.834.804q0 0 0 0t0 0 0 0 0 0h0c.793.345 1.71.19 2.322-.444l.016-.017Z" style="stop-opacity:1;stroke:url(#linearGradient34);baseline-shift:baseline;overflow:visible;fill:url(#b);stroke-width:2.5;stroke-linejoin:round;stroke-dasharray:none;display:inline;stop-color:#000;stroke-linecap:round"/><defs><linearGradient x1="2975.936" y1="532.055" x2="3323.482" y2="730.402" gradientUnits="userSpaceOnUse" id="d" gradientTransform="matrix(.04828 0 0 .04886 -141.6 -18.482)"><stop offset="0" stop-color="#fff"/><stop offset="1" stop-color="#797979" stop-opacity=".796"/></linearGradient></defs><path d="M11.999 3.647a.12.12 0 0 0-.088.037L6.476 9.32.316 6.623a.12.12 0 0 0-.132.023.13.13 0 0 0-.033.132l3.883 11.488c.017.05.065.085.117.085h15.696c.053 0 .1-.034.117-.085l3.884-11.488a.13.13 0 0 0-.034-.132.12.12 0 0 0-.132-.023l-6.16 2.697-5.434-5.636a.12.12 0 0 0-.089-.037m0 .112q.005 0 .009.004l5.488 5.69 6.23-2.727q.009-.004.013.003.007.004.003.013L19.86 18.23a.01.01 0 0 1-.012.008H4.15a.01.01 0 0 1-.012-.008L.256 6.742q-.003-.01.003-.013.005-.007.013-.003l6.23 2.727 5.488-5.69a.01.01 0 0 1 .01-.004m0 3.093-3.98 4.125-.016.017c-.613.635-1.529.79-2.322.444l-1.834-.804 1.845 5.46h12.612l1.845-5.46-1.833.803c-.794.346-1.71.193-2.324-.444Zm0 .16 3.915 4.06c.646.67 1.614.832 2.447.468l.033-.015 1.57-.687-1.739 5.144H5.773l-1.739-5.144 1.594.699.01.004c.824.36 1.781.201 2.426-.451h.003Z" style="stop-opacity:1;vector-effect:none;stroke:none;baseline-shift:baseline;overflow:visible;fill:url(#d);display:inline;stop-color:#000"/></g></svg>